<svg width="296" height="306" viewBox="0 0 296 306" fill="none" xmlns="http://www.w3.org/2000/svg">
<g filter="url(#filter0_d_594_6075)">
<path d="M269.397 72.9556C266.989 68.3279 261.295 65.2324 261.295 65.2324L106.211 8.78642L87.1253 17.1861L98.2617 39.9959L73.1237 54.7183L84.342 78.2399L57.7791 96.8771L65.8765 119.604L49.6131 121.187L56.6443 138.41L25.1526 159.346L27.0302 198.224L191.148 257.958C191.148 257.958 197.691 259.658 202.319 257.25C206.947 254.842 210.042 249.148 210.042 249.148L270.215 83.8252C270.215 83.8252 271.805 77.5834 269.397 72.9556Z" fill="url(#paint0_linear_594_6075)"/>
<path d="M269.397 72.9556C266.989 68.3279 261.295 65.2324 261.295 65.2324L106.211 8.78642L87.1253 17.1861L98.2617 39.9959L73.1237 54.7183L84.342 78.2399L57.7791 96.8771L65.8765 119.604L49.6131 121.187L56.6443 138.41L25.1526 159.346L27.0302 198.224L191.148 257.958C191.148 257.958 197.691 259.658 202.319 257.25C206.947 254.842 210.042 249.148 210.042 249.148L270.215 83.8252C270.215 83.8252 271.805 77.5834 269.397 72.9556Z" fill="url(#paint1_radial_594_6075)" fill-opacity="0.12"/>
</g>
<path d="M157.715 214.855C159.111 213.304 160.428 211.869 161.681 210.41C162.003 210.021 162.305 209.987 162.752 210.149C163.442 210.437 164.187 210.672 164.985 210.962C164.796 211.182 164.663 211.351 164.529 211.519C161.306 215.114 158.05 218.698 154.815 222.326C154.517 222.65 154.267 222.74 153.864 222.557C153.142 222.258 152.397 222.023 151.535 221.71C152.377 220.788 153.122 219.831 153.949 219.048C154.82 218.245 155.069 217.36 154.951 216.197C154.711 213.978 154.621 211.742 154.497 209.602C154.196 209.636 153.914 209.715 153.668 209.697C152.076 209.407 150.408 210.317 149.85 211.848C149.304 213.347 148.77 214.815 148.213 216.346C147.32 216.021 146.458 215.707 145.438 215.336C146.21 213.413 146.822 211.432 147.806 209.623C149.095 207.274 152.195 206.199 154.75 207.02C155.591 207.29 156.363 207.752 157.146 208.181C157.294 208.271 157.328 208.573 157.322 208.787C157.435 210.562 157.504 212.358 157.617 214.133C157.666 214.295 157.692 214.522 157.715 214.855Z" fill="url(#paint2_linear_594_6075)"/>
<path d="M110.85 190.067C109.855 190.319 108.935 190.562 107.952 190.782C107.396 189.135 106.375 187.968 104.725 187.44C103.458 187.051 102.251 187.19 101.097 187.781C98.7759 188.996 97.9339 191.905 99.2239 194.217C100.441 196.43 103.431 197.446 106.109 195.747C106.689 196.536 107.269 197.325 107.837 198.146C105.42 200.121 101.693 200.137 98.8573 198.202C96.1169 196.301 94.9259 192.725 96.0116 189.543C97.1235 186.191 100.297 184.022 103.74 184.191C107.096 184.401 110.047 186.812 110.85 190.067Z" fill="url(#paint3_linear_594_6075)"/>
<path d="M167.101 207.036C169.247 207.889 171.452 208.583 173.464 209.605C175.741 210.794 176.334 213.034 175.374 215.574C174.506 217.859 172.498 219.007 170.062 218.554C169.389 218.418 168.751 218.185 168.102 217.985C167.58 217.831 167.081 217.614 166.539 217.416C165.935 219.075 165.354 220.67 164.75 222.329C163.793 221.981 162.868 221.644 161.943 221.307C163.618 216.606 165.337 211.885 167.101 207.036ZM167.494 214.693C168.387 215.018 169.213 215.427 170.121 215.613C171.359 215.883 172.134 215.443 172.54 214.326C172.935 213.242 172.669 212.386 171.63 211.863C170.772 211.443 169.856 211.181 168.93 210.845C168.434 212.109 167.981 213.353 167.494 214.693Z" fill="url(#paint4_linear_594_6075)"/>
<path d="M184.025 218.109C184.283 218.095 184.544 217.973 184.768 218.054C185.481 218.278 186.203 218.577 186.937 218.844C185.683 222.289 184.464 225.639 183.245 228.988C182.311 228.973 180.666 228.23 180.507 227.775C177.354 227.603 175.35 226.259 174.643 223.835C173.957 221.453 174.773 219.113 176.734 217.695C178.924 216.144 181.099 216.322 183.955 218.3C183.979 218.237 184.002 218.173 184.025 218.109ZM179.034 224.674C180.482 225.165 181.993 224.486 182.472 223.071C182.939 221.688 182.165 220.142 180.782 219.674C179.462 219.23 177.928 219.972 177.484 221.292C176.953 222.652 177.651 224.207 179.034 224.674Z" fill="url(#paint5_linear_594_6075)"/>
<path d="M115.446 192.823C118.349 193.88 119.842 197.024 118.785 199.927C117.752 202.767 114.639 204.271 111.788 203.269C108.746 202.198 107.294 199.141 108.385 196.142C109.442 193.239 112.543 191.767 115.446 192.823ZM112.648 200.511C113.987 200.999 115.531 200.333 116.05 199.004C116.561 197.601 115.883 196.089 114.555 195.57C113.195 195.039 111.596 195.757 111.109 197.097C110.577 198.457 111.288 199.98 112.648 200.511Z" fill="url(#paint6_linear_594_6075)"/>
<path d="M132.055 198.904C132.948 199.23 133.809 199.543 134.671 199.857C134.633 200.06 134.607 200.231 134.592 200.37C135.381 200.585 136.248 200.684 136.947 201.046C139.215 202.161 140.215 204.476 139.472 206.915C138.917 208.736 138.215 210.467 137.565 212.254C137.541 212.317 137.498 212.338 137.42 212.454C136.654 212.175 135.877 211.928 135.102 211.574C134.975 211.528 134.899 211.139 134.958 210.98C135.448 209.532 136.014 208.077 136.505 206.629C136.609 206.342 136.702 206.087 136.743 205.777C136.964 204.773 136.358 203.758 135.377 203.474C134.333 203.166 133.333 203.632 132.961 204.653C132.38 206.248 131.812 207.811 131.231 209.407C131.15 209.63 131.08 209.821 130.987 210.076C130.062 209.74 129.201 209.426 128.307 209.101C129.582 205.699 130.801 202.35 132.055 198.904Z" fill="url(#paint7_linear_594_6075)"/>
<path d="M197.535 222.77C196.116 224.385 194.744 225.872 193.392 227.403C191.387 229.636 189.394 231.837 187.421 234.081C187.099 234.47 186.785 234.537 186.35 234.342C185.66 234.055 184.947 233.831 184.149 233.541C184.338 233.321 184.439 233.141 184.605 232.984C185.446 232.062 186.256 231.128 187.097 230.206C187.463 229.797 187.602 229.415 187.573 228.898C187.345 225.853 187.148 222.819 186.964 219.753C186.938 219.527 186.944 219.312 186.932 218.947C187.921 219.307 188.826 219.6 189.728 220.001C189.855 220.047 189.91 220.392 189.904 220.607C190.005 222.414 190.106 224.221 190.207 226.028C190.213 226.21 190.251 226.405 190.254 226.695C191.051 225.793 191.783 224.975 192.514 224.158C193.123 223.476 193.732 222.795 194.342 222.113C194.585 221.841 194.78 221.803 195.099 221.919C195.864 222.198 196.642 222.445 197.535 222.77Z" fill="url(#paint8_linear_594_6075)"/>
<path d="M127.84 197.479C128.766 197.816 129.595 198.117 130.488 198.443C130.474 198.582 130.427 198.709 130.392 198.805C129.731 200.623 129.101 202.453 128.407 204.26C127.574 206.45 125.143 207.769 122.977 207.269C120.416 206.662 118.809 204.524 119.06 202.05C119.086 201.879 119.08 201.696 119.126 201.569C119.893 199.463 120.659 197.358 121.46 195.157C122.226 195.435 123.035 195.694 123.809 196.048C123.905 196.083 123.98 196.471 123.911 196.663C123.397 198.174 122.819 199.661 122.262 201.193C122.181 201.416 122.111 201.607 122.03 201.831C121.687 202.97 122.174 204.015 123.195 204.386C124.248 204.769 125.347 204.23 125.753 203.114C126.346 201.487 126.949 199.828 127.542 198.201C127.666 197.957 127.748 197.734 127.84 197.479Z" fill="url(#paint9_linear_594_6075)"/>
<path d="M147.415 207.421C146.618 207.131 145.809 206.873 145.055 206.562C144.64 206.411 144.466 206.492 144.315 206.907C144.196 207.334 144.001 207.769 143.85 208.183C143.119 210.193 143.588 211.484 145.491 212.61C145.177 213.471 144.864 214.332 144.504 215.321C143.933 215.005 143.338 214.752 142.897 214.375C140.934 212.721 140.123 210.584 140.878 208.113C141.635 205.535 142.68 203.061 143.609 200.509C144.575 200.535 145.541 200.561 146.614 200.591C146.266 201.548 145.984 202.421 145.639 203.27C145.476 203.717 145.534 203.955 145.992 204.086C146.769 204.332 147.491 204.631 148.289 204.922C148.019 205.763 147.74 206.528 147.415 207.421Z" fill="url(#paint10_linear_594_6075)"/>
<defs>
<filter id="filter0_d_594_6075" x="0.797595" y="6.86361" width="294.287" height="298.464" filterUnits="userSpaceOnUse" color-interpolation-filters="sRGB">
<feFlood flood-opacity="0" result="BackgroundImageFix"/>
<feColorMatrix in="SourceAlpha" type="matrix" values="0 0 0 0 0 0 0 0 0 0 0 0 0 0 0 0 0 0 127 0" result="hardAlpha"/>
<feMorphology radius="7.69105" operator="erode" in="SourceAlpha" result="effect1_dropShadow_594_6075"/>
<feOffset dy="22.4322"/>
<feGaussianBlur stdDeviation="16.023"/>
<feComposite in2="hardAlpha" operator="out"/>
<feColorMatrix type="matrix" values="0 0 0 0 0 0 0 0 0 0 0 0 0 0 0 0 0 0 0.25 0"/>
<feBlend mode="normal" in2="BackgroundImageFix" result="effect1_dropShadow_594_6075"/>
<feBlend mode="normal" in="SourceGraphic" in2="effect1_dropShadow_594_6075" result="shape"/>
</filter>
<linearGradient id="paint0_linear_594_6075" x1="-85.3106" y1="-60.9217" x2="274.11" y2="63.7274" gradientUnits="userSpaceOnUse">
<stop offset="0.213542" stop-color="#4338CA"/>
<stop offset="1" stop-color="#7E22CE"/>
</linearGradient>
<radialGradient id="paint1_radial_594_6075" cx="0" cy="0" r="1" gradientUnits="userSpaceOnUse" gradientTransform="translate(147.038 139.936) rotate(-81.5052) scale(228.268 607.242)">
<stop stop-color="#FFF5F5" stop-opacity="0.46"/>
<stop offset="0.317031" stop-color="#E9D5FF"/>
<stop offset="0.59568" stop-color="#C7D2FE"/>
</radialGradient>
<linearGradient id="paint2_linear_594_6075" x1="157.128" y1="207.881" x2="152.028" y2="221.894" gradientUnits="userSpaceOnUse">
<stop stop-color="#7E22CE"/>
<stop offset="1" stop-color="#6B21A8"/>
</linearGradient>
<linearGradient id="paint3_linear_594_6075" x1="105.377" y1="184.453" x2="100.107" y2="198.932" gradientUnits="userSpaceOnUse">
<stop stop-color="#7E22CE"/>
<stop offset="1" stop-color="#6B21A8"/>
</linearGradient>
<linearGradient id="paint4_linear_594_6075" x1="172.126" y1="208.865" x2="166.936" y2="223.124" gradientUnits="userSpaceOnUse">
<stop stop-color="#4338CA"/>
<stop offset="1" stop-color="#312E81"/>
</linearGradient>
<linearGradient id="paint5_linear_594_6075" x1="181.788" y1="216.953" x2="178.015" y2="227.318" gradientUnits="userSpaceOnUse">
<stop stop-color="#4338CA"/>
<stop offset="1" stop-color="#312E81"/>
</linearGradient>
<linearGradient id="paint6_linear_594_6075" x1="115.478" y1="192.835" x2="111.693" y2="203.235" gradientUnits="userSpaceOnUse">
<stop stop-color="#7E22CE"/>
<stop offset="1" stop-color="#6B21A8"/>
</linearGradient>
<linearGradient id="paint7_linear_594_6075" x1="136.627" y1="200.569" x2="132.897" y2="210.817" gradientUnits="userSpaceOnUse">
<stop stop-color="#7E22CE"/>
<stop offset="1" stop-color="#6B21A8"/>
</linearGradient>
<linearGradient id="paint8_linear_594_6075" x1="192.239" y1="220.842" x2="187.21" y2="234.659" gradientUnits="userSpaceOnUse">
<stop stop-color="#4338CA"/>
<stop offset="1" stop-color="#312E81"/>
</linearGradient>
<linearGradient id="paint9_linear_594_6075" x1="126" y1="196.8" x2="122.268" y2="207.054" gradientUnits="userSpaceOnUse">
<stop stop-color="#7E22CE"/>
<stop offset="1" stop-color="#6B21A8"/>
</linearGradient>
<linearGradient id="paint10_linear_594_6075" x1="146.701" y1="200.623" x2="141.72" y2="214.308" gradientUnits="userSpaceOnUse">
<stop stop-color="#7E22CE"/>
<stop offset="1" stop-color="#6B21A8"/>
</linearGradient>
</defs>
</svg>
