<svg width="296" height="306" viewBox="0 0 296 306" fill="none" xmlns="http://www.w3.org/2000/svg">
<g filter="url(#filter0_d_594_6074)">
<path d="M93.0399 257.301C97.7773 260.01 105.634 258.173 105.634 258.173L270.656 198.11L243.926 169.644L254.894 133.254L237.835 124.799L249.878 112.913L229.066 100.709L237.435 69.3574L213.722 58.5498L223.515 31.1133L200.021 20.908L209.544 2.09596L34.2834 65.8855C34.2834 65.8855 31.272 66.9815 28.9183 69.8843C26.5646 72.7872 25.2239 75.6623 25.3346 79.7144C25.4453 83.7664 26.1849 84.8613 26.1849 84.8613L86.1382 249.582C86.1382 249.582 88.3025 254.592 93.0399 257.301Z" fill="url(#paint0_linear_594_6074)"/>
<path d="M93.0399 257.301C97.7773 260.01 105.634 258.173 105.634 258.173L270.656 198.11L243.926 169.644L254.894 133.254L237.835 124.799L249.878 112.913L229.066 100.709L237.435 69.3574L213.722 58.5498L223.515 31.1133L200.021 20.908L209.544 2.09596L34.2834 65.8855C34.2834 65.8855 31.272 66.9815 28.9183 69.8843C26.5646 72.7872 25.2239 75.6623 25.3346 79.7144C25.4453 83.7664 26.1849 84.8613 26.1849 84.8613L86.1382 249.582C86.1382 249.582 88.3025 254.592 93.0399 257.301Z" fill="url(#paint1_radial_594_6074)" fill-opacity="0.12"/>
</g>
<rect x="62.851" y="125.739" width="39.7371" height="28.8414" rx="5.12737" transform="rotate(-20 62.851 125.739)" fill="url(#paint2_linear_594_6074)"/>
<path d="M90.2174 188.816C89.5405 189.059 88.8982 189.091 88.2904 188.912C87.6826 188.733 87.1288 188.352 86.629 187.768C86.1292 187.185 85.706 186.417 85.3594 185.464C85.0137 184.515 84.8453 183.657 84.8542 182.892C84.8659 182.125 85.0469 181.478 85.3973 180.95C85.7505 180.421 86.2622 180.035 86.9324 179.791C87.6025 179.547 88.242 179.516 88.8508 179.698C89.4586 179.877 90.0118 180.257 90.5106 180.838C91.0111 181.415 91.4342 182.178 91.7799 183.127C92.1276 184.083 92.2975 184.944 92.2897 185.713C92.2808 186.478 92.1017 187.126 91.7524 187.657C91.402 188.185 90.8904 188.571 90.2174 188.816ZM89.8017 187.674C90.3948 187.458 90.7529 187 90.8758 186.3C91.0016 185.599 90.8652 184.7 90.4667 183.605C90.202 182.878 89.9013 182.292 89.5647 181.846C89.2298 181.396 88.8726 181.093 88.493 180.938C88.1152 180.778 87.7309 180.769 87.3403 180.911C86.75 181.126 86.3924 181.586 86.2677 182.29C86.1429 182.994 86.2779 183.893 86.6725 184.986C86.9383 185.716 87.2385 186.306 87.5734 186.756C87.91 187.202 88.2668 187.503 88.6435 187.66C89.0192 187.814 89.4053 187.818 89.8017 187.674ZM97.9927 185.986C97.3159 186.229 96.6735 186.261 96.0658 186.082C95.458 185.903 94.9042 185.522 94.4044 184.938C93.9046 184.355 93.4814 183.587 93.1347 182.634C92.7891 181.685 92.6207 180.827 92.6296 180.062C92.6413 179.295 92.8223 178.648 93.1727 178.12C93.5259 177.591 94.0376 177.205 94.7077 176.961C95.3779 176.717 96.0174 176.686 96.6262 176.868C97.2339 177.047 97.7872 177.427 98.286 178.008C98.7865 178.585 99.2096 179.348 99.5552 180.297C99.9029 181.253 100.073 182.114 100.065 182.883C100.056 183.648 99.8771 184.296 99.5278 184.827C99.1774 185.355 98.6657 185.741 97.9927 185.986ZM97.5771 184.844C98.1702 184.628 98.5282 184.17 98.6512 183.47C98.777 182.768 98.6406 181.87 98.242 180.775C97.9774 180.048 97.6767 179.462 97.3401 179.016C97.0052 178.566 96.648 178.263 96.2684 178.108C95.8906 177.948 95.5063 177.939 95.1156 178.081C94.5253 178.296 94.1678 178.756 94.0431 179.46C93.9183 180.164 94.0533 181.063 94.4479 182.156C94.7136 182.886 95.0139 183.476 95.3488 183.926C95.6854 184.372 96.0421 184.673 96.4189 184.83C96.7946 184.984 97.1807 184.988 97.5771 184.844ZM105.768 183.156C105.091 183.399 104.449 183.431 103.841 183.252C103.233 183.073 102.68 182.692 102.18 182.108C101.68 181.525 101.257 180.757 100.91 179.804C100.564 178.855 100.396 177.997 100.405 177.232C100.417 176.465 100.598 175.818 100.948 175.29C101.301 174.761 101.813 174.375 102.483 174.131C103.153 173.887 103.793 173.856 104.402 174.038C105.009 174.217 105.563 174.597 106.061 175.178C106.562 175.755 106.985 176.518 107.331 177.467C107.678 178.423 107.848 179.284 107.84 180.053C107.832 180.818 107.653 181.466 107.303 181.997C106.953 182.525 106.441 182.911 105.768 183.156ZM105.352 182.014C105.946 181.798 106.304 181.34 106.427 180.64C106.552 179.938 106.416 179.04 106.017 177.945C105.753 177.218 105.452 176.632 105.115 176.186C104.781 175.736 104.423 175.433 104.044 175.278C103.666 175.118 103.282 175.109 102.891 175.251C102.301 175.466 101.943 175.926 101.818 176.63C101.694 177.334 101.829 178.233 102.223 179.326C102.489 180.056 102.789 180.646 103.124 181.096C103.461 181.542 103.818 181.843 104.194 182C104.57 182.154 104.956 182.158 105.352 182.014ZM113.544 180.326C112.867 180.569 112.224 180.601 111.617 180.422C111.009 180.243 110.455 179.862 109.955 179.278C109.455 178.695 109.032 177.927 108.686 176.974C108.34 176.025 108.171 175.167 108.18 174.402C108.192 173.635 108.373 172.988 108.723 172.46C109.077 171.931 109.588 171.545 110.259 171.301C110.929 171.057 111.568 171.026 112.177 171.208C112.785 171.387 113.338 171.767 113.837 172.348C114.337 172.925 114.76 173.688 115.106 174.637C115.454 175.593 115.624 176.454 115.616 177.223C115.607 177.988 115.428 178.636 115.079 179.167C114.728 179.695 114.216 180.081 113.544 180.326ZM113.128 179.184C113.721 178.968 114.079 178.51 114.202 177.81C114.328 177.108 114.191 176.21 113.793 175.115C113.528 174.388 113.227 173.802 112.891 173.356C112.556 172.906 112.199 172.603 111.819 172.448C111.441 172.288 111.057 172.279 110.666 172.421C110.076 172.636 109.719 173.096 109.594 173.8C109.469 174.504 109.604 175.403 109.999 176.496C110.264 177.226 110.565 177.816 110.9 178.266C111.236 178.712 111.593 179.013 111.97 179.17C112.345 179.324 112.731 179.328 113.128 179.184ZM124.507 176.336C123.83 176.579 123.187 176.611 122.58 176.432C121.972 176.253 121.418 175.871 120.918 175.288C120.419 174.704 119.995 173.936 119.649 172.984C119.303 172.034 119.135 171.177 119.144 170.411C119.155 169.645 119.336 168.998 119.687 168.47C120.04 167.941 120.552 167.554 121.222 167.31C121.892 167.067 122.531 167.036 123.14 167.218C123.748 167.397 124.301 167.777 124.8 168.358C125.3 168.934 125.724 169.697 126.069 170.647C126.417 171.602 126.587 172.464 126.579 173.232C126.57 173.998 126.391 174.646 126.042 175.177C125.691 175.705 125.18 176.091 124.507 176.336ZM124.091 175.194C124.684 174.978 125.042 174.52 125.165 173.82C125.291 173.118 125.155 172.22 124.756 171.125C124.491 170.398 124.191 169.811 123.854 169.365C123.519 168.916 123.162 168.613 122.782 168.457C122.404 168.298 122.02 168.289 121.63 168.431C121.039 168.646 120.682 169.106 120.557 169.81C120.432 170.514 120.567 171.413 120.962 172.506C121.228 173.236 121.528 173.826 121.863 174.276C122.199 174.721 122.556 175.023 122.933 175.179C123.309 175.333 123.695 175.338 124.091 175.194ZM132.282 173.506C131.605 173.749 130.963 173.781 130.355 173.602C129.747 173.423 129.194 173.041 128.694 172.458C128.194 171.874 127.771 171.106 127.424 170.154C127.078 169.204 126.91 168.347 126.919 167.581C126.931 166.815 127.112 166.168 127.462 165.64C127.815 165.111 128.327 164.724 128.997 164.48C129.667 164.237 130.307 164.206 130.915 164.388C131.523 164.567 132.077 164.947 132.575 165.528C133.076 166.104 133.499 166.867 133.845 167.817C134.192 168.772 134.362 169.634 134.354 170.402C134.346 171.168 134.166 171.816 133.817 172.347C133.467 172.875 132.955 173.261 132.282 173.506ZM131.866 172.364C132.46 172.148 132.818 171.69 132.941 170.99C133.066 170.288 132.93 169.39 132.531 168.295C132.267 167.568 131.966 166.981 131.629 166.535C131.295 166.086 130.937 165.783 130.558 165.627C130.18 165.468 129.796 165.459 129.405 165.601C128.815 165.816 128.457 166.276 128.332 166.98C128.208 167.684 128.343 168.583 128.737 169.676C129.003 170.406 129.303 170.996 129.638 171.446C129.975 171.891 130.331 172.193 130.708 172.349C131.084 172.503 131.47 172.508 131.866 172.364ZM140.057 170.676C139.381 170.919 138.738 170.951 138.13 170.772C137.523 170.593 136.969 170.211 136.469 169.628C135.969 169.044 135.546 168.276 135.199 167.324C134.854 166.374 134.685 165.517 134.694 164.751C134.706 163.985 134.887 163.338 135.237 162.81C135.591 162.281 136.102 161.894 136.772 161.65C137.443 161.407 138.082 161.376 138.691 161.558C139.299 161.737 139.852 162.117 140.351 162.698C140.851 163.274 141.274 164.037 141.62 164.987C141.968 165.942 142.138 166.804 142.13 167.572C142.121 168.338 141.942 168.986 141.592 169.517C141.242 170.045 140.73 170.431 140.057 170.676ZM139.642 169.534C140.235 169.318 140.593 168.86 140.716 168.16C140.842 167.458 140.705 166.56 140.307 165.465C140.042 164.738 139.741 164.151 139.405 163.705C139.07 163.256 138.713 162.953 138.333 162.797C137.955 162.638 137.571 162.629 137.18 162.771C136.59 162.986 136.233 163.446 136.108 164.15C135.983 164.854 136.118 165.753 136.513 166.846C136.778 167.576 137.079 168.166 137.413 168.616C137.75 169.061 138.107 169.363 138.484 169.519C138.859 169.673 139.245 169.678 139.642 169.534ZM147.833 167.846C147.156 168.089 146.514 168.121 145.906 167.942C145.298 167.763 144.744 167.381 144.244 166.798C143.745 166.214 143.321 165.446 142.975 164.494C142.629 163.544 142.461 162.687 142.47 161.921C142.481 161.155 142.662 160.508 143.013 159.98C143.366 159.451 143.878 159.064 144.548 158.82C145.218 158.577 145.857 158.546 146.466 158.728C147.074 158.907 147.627 159.287 148.126 159.868C148.627 160.444 149.05 161.207 149.395 162.157C149.743 163.112 149.913 163.974 149.905 164.742C149.896 165.508 149.717 166.156 149.368 166.687C149.017 167.215 148.506 167.601 147.833 167.846ZM147.417 166.704C148.01 166.488 148.368 166.03 148.491 165.33C148.617 164.628 148.481 163.73 148.082 162.635C147.817 161.908 147.517 161.321 147.18 160.875C146.845 160.426 146.488 160.123 146.108 159.967C145.731 159.808 145.346 159.799 144.956 159.941C144.365 160.156 144.008 160.616 143.883 161.32C143.758 162.024 143.893 162.923 144.288 164.016C144.554 164.746 144.854 165.336 145.189 165.786C145.526 166.231 145.882 166.533 146.259 166.689C146.635 166.843 147.021 166.848 147.417 166.704ZM155.608 165.016C154.931 165.259 154.289 165.291 153.681 165.112C153.073 164.933 152.52 164.551 152.02 163.968C151.52 163.384 151.097 162.616 150.75 161.664C150.405 160.714 150.236 159.857 150.245 159.091C150.257 158.325 150.438 157.678 150.788 157.15C151.141 156.621 151.653 156.234 152.323 155.99C152.993 155.747 153.633 155.716 154.242 155.898C154.849 156.077 155.403 156.457 155.901 157.038C156.402 157.614 156.825 158.377 157.171 159.327C157.518 160.282 157.688 161.144 157.681 161.912C157.672 162.678 157.493 163.326 157.143 163.857C156.793 164.385 156.281 164.771 155.608 165.016ZM155.193 163.874C155.786 163.658 156.144 163.2 156.267 162.5C156.392 161.798 156.256 160.9 155.858 159.805C155.593 159.078 155.292 158.491 154.956 158.045C154.621 157.596 154.263 157.293 153.884 157.137C153.506 156.978 153.122 156.969 152.731 157.111C152.141 157.326 151.783 157.786 151.659 158.49C151.534 159.194 151.669 160.093 152.063 161.186C152.329 161.916 152.629 162.506 152.964 162.956C153.301 163.401 153.658 163.703 154.034 163.859C154.41 164.013 154.796 164.018 155.193 163.874ZM166.571 161.026C165.894 161.269 165.252 161.301 164.644 161.122C164.037 160.942 163.483 160.561 162.983 159.977C162.483 159.394 162.06 158.626 161.713 157.674C161.368 156.724 161.199 155.867 161.208 155.101C161.22 154.335 161.401 153.688 161.751 153.16C162.105 152.631 162.616 152.244 163.286 152C163.957 151.756 164.596 151.725 165.205 151.907C165.813 152.087 166.366 152.467 166.865 153.047C167.365 153.624 167.788 154.387 168.134 155.337C168.482 156.292 168.652 157.154 168.644 157.922C168.635 158.687 168.456 159.335 168.106 159.866C167.756 160.394 167.244 160.781 166.571 161.026ZM166.156 159.884C166.749 159.668 167.107 159.21 167.23 158.509C167.356 157.808 167.219 156.91 166.821 155.815C166.556 155.088 166.255 154.501 165.919 154.055C165.584 153.605 165.227 153.303 164.847 153.147C164.469 152.987 164.085 152.979 163.694 153.121C163.104 153.336 162.746 153.795 162.622 154.499C162.497 155.204 162.632 156.102 163.027 157.196C163.292 157.926 163.593 158.516 163.927 158.965C164.264 159.411 164.621 159.712 164.998 159.869C165.373 160.023 165.759 160.028 166.156 159.884ZM174.347 158.196C173.67 158.439 173.028 158.471 172.42 158.292C171.812 158.112 171.258 157.731 170.758 157.147C170.259 156.564 169.835 155.796 169.489 154.844C169.143 153.894 168.975 153.037 168.984 152.271C168.995 151.505 169.176 150.858 169.527 150.33C169.88 149.801 170.392 149.414 171.062 149.17C171.732 148.926 172.371 148.895 172.98 149.077C173.588 149.257 174.141 149.637 174.64 150.217C175.141 150.794 175.564 151.557 175.909 152.507C176.257 153.462 176.427 154.324 176.419 155.092C176.41 155.857 176.231 156.505 175.882 157.036C175.531 157.564 175.02 157.951 174.347 158.196ZM173.931 157.054C174.524 156.838 174.882 156.38 175.005 155.679C175.131 154.978 174.995 154.08 174.596 152.985C174.331 152.258 174.031 151.671 173.694 151.225C173.359 150.775 173.002 150.473 172.622 150.317C172.245 150.157 171.86 150.149 171.47 150.291C170.879 150.506 170.522 150.965 170.397 151.669C170.272 152.374 170.407 153.272 170.802 154.366C171.068 155.096 171.368 155.686 171.703 156.135C172.039 156.581 172.396 156.882 172.773 157.039C173.149 157.193 173.535 157.198 173.931 157.054ZM182.122 155.366C181.445 155.609 180.803 155.641 180.195 155.462C179.587 155.282 179.034 154.901 178.534 154.317C178.034 153.734 177.611 152.966 177.264 152.014C176.919 151.064 176.75 150.206 176.759 149.441C176.771 148.675 176.952 148.028 177.302 147.5C177.655 146.971 178.167 146.584 178.837 146.34C179.507 146.096 180.147 146.065 180.756 146.247C181.363 146.427 181.917 146.807 182.415 147.387C182.916 147.964 183.339 148.727 183.685 149.677C184.032 150.632 184.202 151.494 184.194 152.262C184.186 153.027 184.007 153.675 183.657 154.206C183.307 154.734 182.795 155.121 182.122 155.366ZM181.706 154.224C182.3 154.008 182.658 153.55 182.781 152.849C182.906 152.148 182.77 151.25 182.371 150.155C182.107 149.428 181.806 148.841 181.469 148.395C181.135 147.945 180.777 147.643 180.398 147.487C180.02 147.327 179.636 147.319 179.245 147.461C178.655 147.676 178.297 148.135 178.172 148.839C178.048 149.544 178.183 150.442 178.577 151.536C178.843 152.266 179.143 152.856 179.478 153.305C179.815 153.751 180.172 154.052 180.548 154.209C180.924 154.363 181.31 154.368 181.706 154.224ZM189.898 152.536C189.221 152.779 188.578 152.811 187.971 152.632C187.363 152.452 186.809 152.071 186.309 151.487C185.809 150.904 185.386 150.136 185.04 149.184C184.694 148.234 184.526 147.376 184.534 146.611C184.546 145.845 184.727 145.198 185.077 144.67C185.431 144.141 185.942 143.754 186.613 143.51C187.283 143.266 187.922 143.235 188.531 143.417C189.139 143.597 189.692 143.977 190.191 144.557C190.691 145.134 191.114 145.897 191.46 146.847C191.808 147.802 191.978 148.664 191.97 149.432C191.961 150.197 191.782 150.845 191.433 151.376C191.082 151.904 190.571 152.291 189.898 152.536ZM189.482 151.394C190.075 151.178 190.433 150.72 190.556 150.019C190.682 149.318 190.545 148.42 190.147 147.325C189.882 146.597 189.581 146.011 189.245 145.565C188.91 145.115 188.553 144.813 188.173 144.657C187.795 144.497 187.411 144.489 187.02 144.631C186.43 144.846 186.073 145.305 185.948 146.009C185.823 146.714 185.958 147.612 186.353 148.706C186.618 149.436 186.919 150.026 187.254 150.475C187.59 150.921 187.947 151.222 188.324 151.379C188.699 151.533 189.085 151.538 189.482 151.394ZM197.893 139.54L201.082 148.3L199.755 148.783L197.05 141.349L196.998 141.367L195.401 143.499L194.94 142.233L196.606 140.009L197.893 139.54ZM203.451 147.438L203.102 146.48L204.949 142.33C205.144 141.881 205.299 141.493 205.413 141.168C205.528 140.838 205.596 140.541 205.616 140.275C205.635 140.01 205.598 139.749 205.505 139.492C205.399 139.201 205.239 138.975 205.026 138.814C204.811 138.65 204.565 138.554 204.286 138.526C204.007 138.495 203.719 138.534 203.423 138.642C203.109 138.756 202.858 138.92 202.671 139.133C202.484 139.346 202.37 139.593 202.33 139.872C202.29 140.152 202.327 140.449 202.441 140.762L201.179 141.221C200.985 140.688 200.938 140.177 201.038 139.689C201.138 139.2 201.362 138.768 201.709 138.393C202.056 138.015 202.502 137.727 203.047 137.529C203.597 137.328 204.122 137.262 204.621 137.329C205.122 137.392 205.559 137.569 205.933 137.859C206.305 138.146 206.577 138.525 206.749 138.996C206.867 139.321 206.921 139.661 206.912 140.017C206.905 140.371 206.822 140.794 206.661 141.285C206.5 141.773 206.251 142.385 205.915 143.121L204.838 145.577L204.861 145.641L208.805 144.206L209.217 145.339L203.451 147.438ZM213.932 143.759C213.344 143.973 212.783 144.062 212.247 144.028C211.714 143.993 211.249 143.844 210.85 143.582C210.453 143.317 210.158 142.949 209.964 142.48L211.307 141.992C211.419 142.245 211.588 142.439 211.814 142.572C212.043 142.703 212.304 142.772 212.598 142.781C212.892 142.791 213.196 142.738 213.509 142.624C213.854 142.499 214.138 142.328 214.359 142.111C214.584 141.894 214.733 141.651 214.806 141.382C214.878 141.11 214.863 140.833 214.76 140.551C214.653 140.257 214.484 140.027 214.252 139.859C214.021 139.688 213.739 139.59 213.404 139.567C213.072 139.542 212.704 139.604 212.299 139.751L211.559 140.021L211.167 138.943L211.907 138.673C212.232 138.555 212.495 138.393 212.698 138.187C212.904 137.979 213.038 137.746 213.102 137.487C213.165 137.225 213.145 136.953 213.043 136.671C212.944 136.4 212.797 136.187 212.602 136.032C212.408 135.873 212.18 135.777 211.916 135.744C211.655 135.71 211.374 135.747 211.075 135.856C210.79 135.96 210.542 136.11 210.333 136.306C210.125 136.498 209.979 136.719 209.896 136.969C209.811 137.216 209.812 137.475 209.898 137.748L208.619 138.213C208.461 137.734 208.45 137.267 208.584 136.811C208.721 136.355 208.973 135.945 209.338 135.583C209.704 135.22 210.154 134.942 210.69 134.747C211.252 134.542 211.777 134.475 212.265 134.547C212.754 134.614 213.176 134.788 213.53 135.069C213.887 135.349 214.143 135.705 214.297 136.137C214.478 136.626 214.493 137.093 214.341 137.535C214.192 137.977 213.91 138.34 213.496 138.623L213.521 138.691C214.135 138.568 214.67 138.635 215.125 138.892C215.583 139.148 215.912 139.554 216.11 140.108C216.288 140.589 216.312 141.07 216.18 141.55C216.051 142.03 215.794 142.464 215.409 142.853C215.023 143.239 214.531 143.541 213.932 143.759Z" fill="#FBFBFB"/>
<defs>
<filter id="filter0_d_594_6074" x="0.973254" y="0.173184" width="294.038" height="305.396" filterUnits="userSpaceOnUse" color-interpolation-filters="sRGB">
<feFlood flood-opacity="0" result="BackgroundImageFix"/>
<feColorMatrix in="SourceAlpha" type="matrix" values="0 0 0 0 0 0 0 0 0 0 0 0 0 0 0 0 0 0 127 0" result="hardAlpha"/>
<feMorphology radius="7.69105" operator="erode" in="SourceAlpha" result="effect1_dropShadow_594_6074"/>
<feOffset dy="22.4322"/>
<feGaussianBlur stdDeviation="16.023"/>
<feComposite in2="hardAlpha" operator="out"/>
<feColorMatrix type="matrix" values="0 0 0 0 0 0 0 0 0 0 0 0 0 0 0 0 0 0 0.25 0"/>
<feBlend mode="normal" in2="BackgroundImageFix" result="effect1_dropShadow_594_6074"/>
<feBlend mode="normal" in="SourceGraphic" in2="effect1_dropShadow_594_6074" result="shape"/>
</filter>
<linearGradient id="paint0_linear_594_6074" x1="21" y1="70.7202" x2="377.346" y2="-67.3638" gradientUnits="userSpaceOnUse">
<stop offset="0.231373" stop-color="#4338CA"/>
<stop offset="1" stop-color="#7E22CE"/>
</linearGradient>
<radialGradient id="paint1_radial_594_6074" cx="0" cy="0" r="1" gradientUnits="userSpaceOnUse" gradientTransform="translate(159.464 136.613) rotate(-121.472) scale(228.241 605.516)">
<stop stop-color="#FFF5F5" stop-opacity="0.46"/>
<stop offset="0.317031" stop-color="#E9D5FF"/>
<stop offset="0.59568" stop-color="#C7D2FE"/>
</radialGradient>
<linearGradient id="paint2_linear_594_6074" x1="63.8123" y1="127.982" x2="108.036" y2="156.503" gradientUnits="userSpaceOnUse">
<stop stop-color="#B4B4B4"/>
<stop offset="0.142857" stop-color="white" stop-opacity="0.73"/>
<stop offset="0.285714" stop-color="#CACACA" stop-opacity="0.919413"/>
<stop offset="0.428571" stop-color="#E5E5E5" stop-opacity="0.824605"/>
<stop offset="0.571429" stop-color="#C1C1C1"/>
<stop offset="0.714286" stop-color="#EAEAEA"/>
<stop offset="0.857143" stop-color="#D4D4D4"/>
<stop offset="1" stop-color="white"/>
</linearGradient>
</defs>
</svg>
